:SAMPLES-PER-SECOND 30
:FULLY-SPECIFIED
:DEGREES
638
root  -6.45958 28.8448 -21.4135 -140.296 58.2502 -3.64606
Spine  8.39762 5.61355 19.1126
Spine1  4.46966 -24.2371 4.8766
Neck  3.97569e-016 0 -2.38542e-015
Head  -38.5169 3.17242 32.4426
R_Clavicle  3.88692 28.2497 10.2611
R_UpperArm  101.717 -10.4837 24.2822
R_Forearm  -1.06963 14.4064 -12.3854
R_Hand  -65.6222 33.3862 -142.382
L_Clavicle  -0.212236 11.2404 -2.398
L_UpperArm  -38.4526 18.4899 36.5774
L_Forearm  -21.6492 -15.9906 -19.3322
L_Hand  -0.603536 -0.679861 -13.9315
L_Thigh  -29.5405 18.5496 53.6519
L_Calf  15.9805 0.9478 -7.23607
L_Foot  -2.17996 -11.7381 8.47087
L_Toe0  0.505156 0.0344467 -6.1361
R_Thigh  14.6697 -43.071 -5.19086
R_Calf  7.19499 7.89706 25.3108
R_Foot  1.21265 4.23767 0.249125
R_Toe0  -1.78853 -0.272788 -17.3235
639
root  -5.96977 29.2814 -20.7823 -134.049 69.9397 15.1657
Spine  11.7724 9.20203 20.5687
Spine1  6.83367 -25.4436 3.17478
Neck  3.97569e-016 0 -2.38542e-015
Head  -34.5569 0.130112 28.3599
R_Clavicle  3.60859 30.9179 9.24922
R_UpperArm  105.584 -0.412965 21.4152
R_Forearm  -1.81171 13.1796 -11.1878
R_Hand  -65.819 36.1434 -139.089
L_Clavicle  -0.245697 12.6286 -3.61819
L_UpperArm  -35.4667 16.7342 35.6968
L_Forearm  -21.1816 -12.3312 -14.6309
L_Hand  -0.516164 -1.59251 -14.7376
L_Thigh  -30.6402 16.1884 54.2311
L_Calf  21.5918 1.24793 -9.4475
L_Foot  -2.9168 -14.0648 9.19383
L_Toe0  0.505156 0.0344462 -6.1361
R_Thigh  8.47126 -41.1374 -2.0519
R_Calf  8.11041 7.1568 22.7613
R_Foot  0.759674 3.0278 1.35348
R_Toe0  -1.78853 -0.272788 -17.3235
640
root  -5.4609 29.3799 -19.8828 -102.562 78.9634 59.0127
Spine  14.4661 11.9135 19.2944
Spine1  9.16598 -25.2798 2.28762
Neck  3.97569e-016 0 -2.38542e-015
Head  -28.0519 -1.66057 24.6372
R_Clavicle  3.19889 33.4074 8.06773
R_UpperArm  104.306 11.4706 16.4989
R_Forearm  2.78665 11.3822 -5.8973
R_Hand  -64.0404 36.1231 -137.393
L_Clavicle  -0.372111 14.8286 -4.34413
L_UpperArm  -33.395 13.3025 35.4995
L_Forearm  -19.8166 -8.93806 -10.4743
L_Hand  -0.523 -1.53884 -14.6999
L_Thigh  -29.6577 14.1465 55.7731
L_Calf  27.9569 1.24686 -9.43314
L_Foot  -2.98944 -14.2393 9.18175
L_Toe0  0.414753 0.0605853 -6.43507
R_Thigh  2.99465 -39.5329 4.44983
R_Calf  8.46722 6.54348 20.6979
R_Foot  0.369135 2.01214 2.23205
R_Toe0  -1.78853 -0.272788 -17.3235
641
root  -5.05597 29.1662 -18.8798 -50.356 75.0717 121.848
Spine  15.768 14.4106 19.3625
Spine1  10.1644 -24.8233 1.18048
Neck  3.97569e-016 0 -2.38542e-015
Head  -19.6248 -1.35249 21.455
R_Clavicle  1.77445 33.1435 5.04956
R_UpperArm  89.6822 22.8857 16.6455
R_Forearm  26.7799 8.88352 4.9795
R_Hand  -58.9392 28.9895 -141.93
L_Clavicle  -0.37439 14.926 -4.86828
L_UpperArm  -32.8152 10.2188 36.0476
L_Forearm  -20.283 -5.30874 -6.17104
L_Hand  -0.578031 -0.880622 -13.9513
L_Thigh  -28.6378 10.3842 53.2821
L_Calf  21.5329 0.556496 -4.38759
L_Foot  -2.14412 -12.4969 11.4082
L_Toe0  1.39376 -0.218321 -3.27869
R_Thigh  1.11013 -40.3171 9.22574
R_Calf  8.40985 6.75255 21.4211
R_Foot  1.12339 4.45586 2.36982
R_Toe0  -1.78853 -0.272788 -17.3235
642
root  -4.67108 28.4324 -17.7831 -40.7456 61.6758 138.977
Spine  16.1759 15.8925 23.5527
Spine1  9.94696 -23.1628 -2.36805
Neck  3.97569e-016 0 -2.38542e-015
Head  -11.056 0.246413 18.3191
R_Clavicle  0.340605 33.2397 1.97447
R_UpperArm  79.545 31.2493 16.9379
R_Forearm  56.5714 1.45944 10.0628
R_Hand  -47.0263 19.6882 -143.336
L_Clavicle  -0.119781 11.6629 -5.4241
L_UpperArm  -34.7469 8.97619 35.9504
L_Forearm  -21.3401 -1.02939 -1.20035
L_Hand  -0.573235 -0.620623 -13.1126
L_Thigh  -24.8545 9.19844 47.0938
L_Calf  4.07656 -0.408468 2.6643
L_Foot  -1.06071 -12.6262 23.6191
L_Toe0  3.7109 -0.932324 5.22895
R_Thigh  1.15642 -42.724 10.2783
R_Calf  7.37681 7.49054 23.9621
R_Foot  1.87486 6.89631 2.69542
R_Toe0  -1.78853 -0.272788 -17.3235
643
root  -3.84337 27.8289 -16.927 -38.2847 49.261 143.608
Spine  15.1102 14.554 29.1356
Spine1  8.89461 -18.8977 -7.5657
Neck  3.97569e-016 0 -2.38542e-015
Head  -5.96582 2.96827 13.5311
R_Clavicle  0.84218 34.3964 3.03913
R_UpperArm  74.0707 37.8737 10.2416
R_Forearm  73.6984 -3.85952 15.2882
R_Hand  -38.055 16.7208 -137.906
L_Clavicle  0.272655 7.7153 -6.57489
L_UpperArm  -38.1964 4.58918 33.8489
L_Forearm  -22.8709 5.00551 5.79525
L_Hand  -0.585325 -0.452725 -12.9432
L_Thigh  -16.5643 12.625 45.7048
L_Calf  -7.70944 -0.547075 3.5841
L_Foot  -0.849438 -14.2392 35.1369
L_Toe0  -0.541892 0.118848 -5.85701
R_Thigh  -2.00166 -45.888 11.1271
R_Calf  5.46689 7.90339 25.3878
R_Foot  1.42902 5.60039 3.20916
R_Toe0  -1.78853 -0.272788 -17.3235
644
root  -2.72285 27.8779 -16.5545 -32.4517 41.3792 146.171
Spine  12.7241 11.2357 33.5601
Spine1  7.37174 -14.763 -12.2946
Neck  3.97569e-016 0 -2.38542e-015
Head  -7.76237 7.04877 7.2331
R_Clavicle  2.23527 31.2609 6.18
R_UpperArm  73.059 42.9405 6.95666
R_Forearm  79.2949 -3.12273 16.7474
R_Hand  -39.2874 19.671 -133.27
L_Clavicle  0.548498 6.1917 -8.22408
L_UpperArm  -37.0895 -10.2045 29.2378
L_Forearm  -24.5365 13.6962 16.4853
L_Hand  -0.621682 -0.0876038 -12.8057
L_Thigh  -8.92123 16.056 51.7468
L_Calf  -4.12074 0.166044 -1.64404
L_Foot  -0.798641 -13.6317 31.8307
L_Toe0  -0.0733952 0.00803238 -4.59645
R_Thigh  -8.98632 -50.6011 15.3744
R_Calf  3.1713 7.77642 24.895
R_Foot  0.73642 3.61043 3.83211
R_Toe0  -1.78853 -0.272788 -17.3235
645
root  -1.69884 28.1564 -16.5456 -24.9673 35.369 148.683
Spine  11.5739 9.86181 37.8989
Spine1  6.43517 -14.8109 -16.2626
Neck  3.97569e-016 0 -2.38542e-015
Head  -14.5489 10.903 2.42282
R_Clavicle  1.51425 24.1834 4.86479
R_UpperArm  77.897 46.1311 14.9266
R_Forearm  80.3937 -0.69348 16.1737
R_Hand  -43.8147 23.633 -132.26
L_Clavicle  0.642917 5.80613 -8.8344
L_UpperArm  -25.2734 -31.1647 19.3845
L_Forearm  -23.8569 24.1746 29.9033
L_Hand  -0.594238 0.1424 -11.7626
L_Thigh  -6.36649 17.683 58.1978
L_Calf  6.70679 0.416257 -3.52234
L_Foot  -0.0507205 -10.989 25.1936
L_Toe0  1.35043 -0.124018 -0.0648184
R_Thigh  -14.082 -54.7309 22.9715
R_Calf  0.371015 7.46671 23.7907
R_Foot  0.897868 4.23045 4.35445
R_Toe0  -1.78853 -0.272788 -17.3235
646
root  -0.99438 28.5589 -16.781 -18.1792 28.1416 150.931
Spine  11.5623 11.1889 41.6227
Spine1  6.00311 -17.3147 -18.1439
Neck  3.97569e-016 0 -2.38542e-015
Head  -19.8678 12.3611 1.34924
R_Clavicle  0.502905 18.525 2.41918
R_UpperArm  83.6364 40.2184 26.9601
R_Forearm  81.6838 1.46901 13.8732
R_Hand  -42.8403 26.631 -126.171
L_Clavicle  0.90488 2.09336 -7.90277
L_UpperArm  -13.1667 -44.1807 3.07753
L_Forearm  -15.4248 35.4678 41.1339
L_Hand  -0.516903 -0.161424 -10.8175
L_Thigh  -6.28304 17.7355 60.7777
L_Calf  12.5484 -0.290579 1.63441
L_Foot  1.48359 -7.3444 22.9874
L_Toe0  1.47158 -0.0842175 -2.62023
R_Thigh  -14.4943 -55.3347 31.144
R_Calf  -1.61474 7.5789 24.1927
R_Foot  1.26197 5.14568 3.53566
R_Toe0  -1.78853 -0.272788 -17.3235
647
root  -0.420861 28.832 -17.2732 -12.9517 20.0628 151.955
Spine  11.1392 11.6051 43.1263
Spine1  5.34189 -16.9523 -17.2555
Neck  3.97569e-016 0 -2.38542e-015
Head  -21.2284 9.49125 2.27095
R_Clavicle  0.0697274 16.6905 1.09271
R_UpperArm  83.5533 30.9402 31.9355
R_Forearm  71.2361 -0.641788 13.2993
R_Hand  -41.9494 34.6193 -112.311
L_Clavicle  1.22576 -3.97308 -6.39106
L_UpperArm  -16.561 -46.0561 -8.5301
L_Forearm  -0.250224 42.6006 49.7256
L_Hand  -0.470412 -0.828566 -11.2405
L_Thigh  -2.61392 17.0845 62.4841
L_Calf  14.3114 -1.09698 7.74357
L_Foot  1.78295 -6.37679 22.0538
L_Toe0  0.423263 0.0448818 -6.45456
R_Thigh  -14.4624 -52.67 37.573
R_Calf  -3.73944 8.22904 26.4908
R_Foot  1.30494 5.04404 2.38344
R_Toe0  -1.78853 -0.272788 -17.3235
648
root  0.0929549 28.8001 -18.1704 -8.76367 13.1188 151.342
Spine  9.49126 9.51496 43.1447
Spine1  4.50785 -14.1277 -15.2528
Neck  3.97569e-016 0 -2.38542e-015
Head  -21.9405 3.67196 2.78471
R_Clavicle  -0.582888 14.9691 -0.983237
R_UpperArm  79.8126 25.7645 35.6373
R_Forearm  53.4858 -5.50976 13.3374
R_Hand  -36.0279 38.085 -97.0885
L_Clavicle  1.37235 -6.2138 -6.19711
L_UpperArm  -17.7601 -45.1423 -9.72808
L_Forearm  -0.52807 41.4782 51.3795
L_Hand  -0.503336 -1.02076 -12.5802
L_Thigh  5.30114 15.6876 64.616
L_Calf  14.1314 -1.48069 10.6519
L_Foot  0.725997 -7.5425 18.6371
L_Toe0  0.505156 0.034446 -6.1361
R_Thigh  -19.6729 -48.6908 42.6623
R_Calf  -6.15024 9.15869 29.8413
R_Foot  2.01794 7.21365 1.91221
R_Toe0  -1.78853 -0.272788 -17.3235
